<?xml version="1.0" standalone="no"?><!DOCTYPE svg PUBLIC "-//W3C//DTD SVG 1.1//EN" "http://www.w3.org/Graphics/SVG/1.1/DTD/svg11.dtd"><svg t="1669192619207" class="icon" viewBox="0 0 1024 1024" version="1.1" xmlns="http://www.w3.org/2000/svg" p-id="5075" xmlns:xlink="http://www.w3.org/1999/xlink" width="200" height="200"><path d="M640 704a21.333333 21.333333 0 0 1-21.333333 21.333333H256c-94.106667 0-170.666667 76.56-170.666667 170.666667v32a10.666667 10.666667 0 0 0 10.666667 10.666667h480a21.333333 21.333333 0 0 1 0 42.666666H96a53.393333 53.393333 0 0 1-53.333333-53.333333v-32a213.333333 213.333333 0 0 1 213.333333-213.333333h362.666667a21.333333 21.333333 0 0 1 21.333333 21.333333z m341.333333 128a21.333333 21.333333 0 0 1-21.333333 21.333333h-106.666667v106.666667a21.333333 21.333333 0 0 1-42.666666 0v-106.666667h-106.666667a21.333333 21.333333 0 0 1 0-42.666666h106.666667v-106.666667a21.333333 21.333333 0 0 1 42.666666 0v106.666667h106.666667a21.333333 21.333333 0 0 1 21.333333 21.333333z m-256-533.333333c0 141.386667-114.613333 256-256 256S213.333333 440.053333 213.333333 298.666667 327.946667 42.666667 469.333333 42.666667s256 114.613333 256 256zM469.333333 85.333333c-117.82 0-213.333333 95.513333-213.333333 213.333334s95.513333 213.333333 213.333333 213.333333 213.333333-95.513333 213.333334-213.333333-95.513333-213.333333-213.333334-213.333334z" fill="#999999" p-id="5076"></path></svg>